<!--?xml version="1.0" encoding="utf-8"?-->
<!-- Generator: Adobe Illustrator 22.1.0, SVG Export Plug-In . SVG Version: 6.00 Build 0)  -->
<svg version="1.1" id="_x34_" xmlns="http://www.w3.org/2000/svg" xmlns:xlink="http://www.w3.org/1999/xlink" x="0px" y="0px" viewBox="0 0 600.532 800" style="width: 85px;" xml:space="preserve">
<style type="text/css">
	.st0{fill:#040000;}
</style>
<g>
	<path class="st0" d="M223.191,112.515c0,0-4.079-16.384-1.37-34.118c2.739-17.724,0-20.467-5.442-34.107
		C210.905,30.665,213.645,2,213.645,2s49.106,49.122,69.575,55.93c0,0,49.106,0,81.849,6.842c0,0,28.649-32.747,43.669-40.94
		c14.989-8.181,21.807-1.349,27.27,16.374c5.448,17.724-9.546,45.004-8.177,65.476c1.369,20.463,9.551,54.575,8.177,72.304
		c-1.365,17.729-12.281,35.481-6.808,58.663c5.443,23.198,9.522,57.304,4.074,84.579c-5.443,27.28-13.65,53.226-25.906,69.579
		c-12.28,16.364-23.197,35.487-20.467,51.841c2.714,16.393,21.837,28.654,24.546,62.767c2.734,34.112-5.448,91.401-16.359,115.942
		c-10.916,24.581-38.196,49.132-39.565,68.235c-1.365,19.092,9.547,31.353,9.547,31.353s100.953,12.3,133.695,12.3
		c32.748,0,69.555-1.364,85.938,16.364c16.369,17.739,24.566,45.009-8.181,47.748c-32.744,2.729-124.149-4.104-155.508-4.104
		c-31.398,0-98.239-8.187-147.341-10.895c-49.112-2.729-137.809-5.469-141.882-32.749c0,0-10.916-2.728-31.378,0
		c-20.463,2.739-49.113,5.448-58.659-19.092c-9.551-24.561-8.182-49.132-12.285-62.757C25.389,654.104-3.28,596.815,2.193,554.516
		c5.448-42.299,8.181-91.401,34.112-121.411c25.916-30.008,47.738-57.288,57.289-83.223c9.551-25.915,24.545-55.93,45.008-72.313
		c20.467-16.364,34.117-27.276,45.028-47.738c10.916-20.467,17.733-14.994,19.098-31.389
		C204.093,182.088,186.365,147.971,223.191,112.515z" style="fill: rgb(4, 0, 0); opacity: 1;"></path>
</g>
</svg>
