<svg width="340" height="100" viewBox="0 0 340 100" fill="none" xmlns="http://www.w3.org/2000/svg">
<path d="M39.0252 65C38.7452 65 38.4932 64.902 38.2692 64.706C38.0732 64.482 37.9752 64.23 37.9752 63.95V36.65C37.9752 36.342 38.0732 36.09 38.2692 35.894C38.4932 35.698 38.7452 35.6 39.0252 35.6H43.5612C44.2332 35.6 44.7232 35.908 45.0312 36.524L52.4232 49.754L59.8152 36.524C60.1232 35.908 60.6132 35.6 61.2852 35.6H65.7792C66.0872 35.6 66.3392 35.698 66.5352 35.894C66.7592 36.09 66.8712 36.342 66.8712 36.65V63.95C66.8712 64.258 66.7592 64.51 66.5352 64.706C66.3392 64.902 66.0872 65 65.7792 65H60.7812C60.4732 65 60.2072 64.902 59.9832 64.706C59.7872 64.51 59.6892 64.258 59.6892 63.95V48.2L54.9852 56.978C54.6212 57.622 54.1312 57.944 53.5152 57.944H51.3312C50.9672 57.944 50.6732 57.86 50.4492 57.692C50.2252 57.524 50.0292 57.286 49.8612 56.978L45.1152 48.2V63.95C45.1152 64.23 45.0172 64.482 44.8212 64.706C44.6252 64.902 44.3732 65 44.0652 65H39.0252ZM82.3744 65.42C79.0144 65.42 76.3684 64.51 74.4364 62.69C72.5044 60.87 71.4964 58.224 71.4124 54.752V53.282C71.5244 49.978 72.5464 47.402 74.4784 45.554C76.4384 43.678 79.0564 42.74 82.3324 42.74C84.7124 42.74 86.7144 43.23 88.3384 44.21C89.9904 45.162 91.2224 46.478 92.0344 48.158C92.8744 49.838 93.2944 51.77 93.2944 53.954V54.962C93.2944 55.242 93.1964 55.494 93.0004 55.718C92.8044 55.914 92.5524 56.012 92.2444 56.012H78.8044V56.306C78.8604 57.622 79.1824 58.686 79.7704 59.498C80.3584 60.31 81.2124 60.716 82.3324 60.716C83.0324 60.716 83.6064 60.576 84.0544 60.296C84.5024 59.988 84.9084 59.624 85.2724 59.204C85.5244 58.896 85.7204 58.714 85.8604 58.658C86.0284 58.574 86.2804 58.532 86.6164 58.532H91.8244C92.0764 58.532 92.2864 58.616 92.4544 58.784C92.6504 58.924 92.7484 59.12 92.7484 59.372C92.7484 60.1 92.3284 60.94 91.4884 61.892C90.6764 62.844 89.4864 63.67 87.9184 64.37C86.3504 65.07 84.5024 65.42 82.3744 65.42ZM85.9024 51.854V51.77C85.9024 50.398 85.5804 49.32 84.9364 48.536C84.3204 47.724 83.4524 47.318 82.3324 47.318C81.2404 47.318 80.3724 47.724 79.7284 48.536C79.1124 49.32 78.8044 50.398 78.8044 51.77V51.854H85.9024ZM107.564 65.42C104.092 65.42 101.418 64.594 99.5419 62.942C97.6659 61.29 96.6439 58.966 96.4759 55.97C96.4479 55.606 96.4339 54.976 96.4339 54.08C96.4339 53.184 96.4479 52.554 96.4759 52.19C96.6439 49.222 97.6939 46.912 99.6259 45.26C101.558 43.58 104.204 42.74 107.564 42.74C110.952 42.74 113.612 43.58 115.544 45.26C117.476 46.912 118.526 49.222 118.694 52.19C118.722 52.554 118.736 53.184 118.736 54.08C118.736 54.976 118.722 55.606 118.694 55.97C118.526 58.966 117.504 61.29 115.628 62.942C113.752 64.594 111.064 65.42 107.564 65.42ZM107.564 60.296C108.796 60.296 109.706 59.932 110.294 59.204C110.882 58.448 111.218 57.3 111.302 55.76C111.33 55.48 111.344 54.92 111.344 54.08C111.344 53.24 111.33 52.68 111.302 52.4C111.218 50.888 110.868 49.754 110.252 48.998C109.664 48.242 108.768 47.864 107.564 47.864C105.24 47.864 104.008 49.376 103.868 52.4L103.826 54.08L103.868 55.76C103.924 57.3 104.246 58.448 104.834 59.204C105.45 59.932 106.36 60.296 107.564 60.296ZM128.341 65C127.949 65 127.641 64.916 127.417 64.748C127.221 64.552 127.067 64.286 126.955 63.95L120.907 44.504L120.823 44.084C120.823 43.832 120.921 43.622 121.117 43.454C121.313 43.258 121.537 43.16 121.789 43.16H126.115C126.451 43.16 126.731 43.258 126.955 43.454C127.179 43.622 127.319 43.818 127.375 44.042L130.903 56.054L134.683 44.084C134.739 43.86 134.879 43.65 135.103 43.454C135.327 43.258 135.621 43.16 135.985 43.16H138.757C139.121 43.16 139.415 43.258 139.639 43.454C139.863 43.65 140.003 43.86 140.059 44.084L143.839 56.054L147.367 44.042C147.423 43.818 147.563 43.622 147.787 43.454C148.011 43.258 148.291 43.16 148.627 43.16H152.953C153.205 43.16 153.429 43.258 153.625 43.454C153.821 43.622 153.919 43.832 153.919 44.084L153.835 44.504L147.787 63.95C147.675 64.286 147.507 64.552 147.283 64.748C147.087 64.916 146.793 65 146.401 65H142.621C141.893 65 141.431 64.65 141.235 63.95L137.371 52.442L133.507 63.95C133.311 64.65 132.849 65 132.121 65H128.341Z" fill="black"/>
<path d="M234.401 65.42C232.917 65.42 231.559 65.14 230.327 64.58C229.123 63.992 228.171 63.208 227.471 62.228C226.799 61.22 226.463 60.114 226.463 58.91C226.463 56.978 227.247 55.424 228.815 54.248C230.411 53.072 232.595 52.26 235.367 51.812L240.617 51.014V50.426C240.617 49.362 240.393 48.578 239.945 48.074C239.497 47.57 238.741 47.318 237.677 47.318C237.033 47.318 236.501 47.43 236.081 47.654C235.661 47.878 235.227 48.186 234.779 48.578C234.387 48.914 234.093 49.138 233.897 49.25C233.813 49.474 233.659 49.586 233.435 49.586H228.857C228.577 49.586 228.339 49.502 228.143 49.334C227.975 49.138 227.905 48.914 227.933 48.662C227.961 47.906 228.325 47.066 229.025 46.142C229.753 45.218 230.845 44.42 232.301 43.748C233.785 43.076 235.605 42.74 237.761 42.74C241.205 42.74 243.753 43.51 245.405 45.05C247.057 46.562 247.883 48.606 247.883 51.182V63.95C247.883 64.23 247.785 64.482 247.589 64.706C247.393 64.902 247.141 65 246.833 65H241.961C241.681 65 241.429 64.902 241.205 64.706C241.009 64.482 240.911 64.23 240.911 63.95V62.48C240.295 63.348 239.427 64.062 238.307 64.622C237.215 65.154 235.913 65.42 234.401 65.42ZM236.375 60.632C237.663 60.632 238.699 60.212 239.483 59.372C240.295 58.532 240.701 57.3 240.701 55.676V55.088L237.131 55.718C234.611 56.166 233.351 57.048 233.351 58.364C233.351 59.064 233.645 59.624 234.233 60.044C234.821 60.436 235.535 60.632 236.375 60.632ZM253.673 65C253.365 65 253.113 64.902 252.917 64.706C252.721 64.51 252.623 64.258 252.623 63.95V44.21C252.623 43.902 252.721 43.65 252.917 43.454C253.113 43.258 253.365 43.16 253.673 43.16H258.503C258.811 43.16 259.063 43.258 259.259 43.454C259.483 43.65 259.595 43.902 259.595 44.21V45.806C260.351 44.882 261.317 44.14 262.493 43.58C263.697 43.02 265.055 42.74 266.567 42.74C269.031 42.74 271.033 43.58 272.573 45.26C274.113 46.912 274.883 49.236 274.883 52.232V63.95C274.883 64.23 274.785 64.482 274.589 64.706C274.393 64.902 274.141 65 273.833 65H268.541C268.261 65 268.009 64.902 267.785 64.706C267.589 64.482 267.491 64.23 267.491 63.95V52.484C267.491 51.168 267.169 50.16 266.525 49.46C265.881 48.732 264.957 48.368 263.753 48.368C262.577 48.368 261.653 48.732 260.981 49.46C260.309 50.16 259.973 51.168 259.973 52.484V63.95C259.973 64.23 259.875 64.482 259.679 64.706C259.483 64.902 259.231 65 258.923 65H253.673ZM287.759 65.42C285.015 65.42 282.873 64.566 281.333 62.858C279.821 61.122 278.995 58.686 278.855 55.55L278.813 54.08L278.855 52.568C278.967 49.544 279.793 47.15 281.333 45.386C282.901 43.622 285.043 42.74 287.759 42.74C290.307 42.74 292.365 43.566 293.933 45.218V36.23C293.933 35.922 294.031 35.67 294.227 35.474C294.423 35.278 294.675 35.18 294.983 35.18H300.107C300.415 35.18 300.667 35.278 300.863 35.474C301.059 35.67 301.157 35.922 301.157 36.23V63.95C301.157 64.23 301.059 64.482 300.863 64.706C300.667 64.902 300.415 65 300.107 65H295.361C295.081 65 294.829 64.902 294.605 64.706C294.409 64.482 294.311 64.23 294.311 63.95V62.606C292.771 64.482 290.587 65.42 287.759 65.42ZM290.069 59.792C291.329 59.792 292.267 59.4 292.883 58.616C293.499 57.804 293.849 56.768 293.933 55.508C293.961 55.144 293.975 54.612 293.975 53.912C293.975 53.24 293.961 52.722 293.933 52.358C293.877 51.21 293.527 50.258 292.883 49.502C292.239 48.746 291.301 48.368 290.069 48.368C288.753 48.368 287.801 48.76 287.213 49.544C286.653 50.328 286.331 51.406 286.247 52.778C286.219 53.058 286.205 53.492 286.205 54.08C286.205 54.668 286.219 55.102 286.247 55.382C286.331 56.754 286.653 57.832 287.213 58.616C287.801 59.4 288.753 59.792 290.069 59.792Z" fill="black"/>
<path d="M188.149 16.1511C188.149 16.1511 187.742 14.2679 188.012 12.2295C188.286 10.1923 188.012 9.87698 187.469 8.30916C186.922 6.74307 187.196 3.44824 187.196 3.44824C187.196 3.44824 192.102 9.09445 194.147 9.87698C194.147 9.87698 199.053 9.87698 202.325 10.6634C202.325 10.6634 205.187 6.89939 206.688 5.95767C208.185 5.01732 208.866 5.80261 209.412 7.83974C209.957 9.87698 208.458 13.0126 208.595 15.3657C208.732 17.7178 209.549 21.6387 209.412 23.6765C209.276 25.7143 208.185 27.7548 208.732 30.4194C209.276 33.0858 209.683 37.0061 209.139 40.1411C208.595 43.2767 207.775 46.259 206.551 48.1387C205.324 50.0196 204.233 52.2177 204.506 54.0974C204.777 55.9817 206.688 57.391 206.958 61.312C207.231 65.233 206.414 71.8179 205.324 74.6387C204.233 77.4641 201.508 80.2861 201.371 82.4818C201.234 84.6763 202.325 86.0856 202.325 86.0856C202.325 86.0856 212.411 87.4994 215.682 87.4994C218.954 87.4994 222.632 87.3426 224.269 89.3803C225.904 91.4193 226.723 94.5538 223.451 94.8686C220.18 95.1823 211.047 94.3969 207.914 94.3969C204.777 94.3969 198.099 93.4558 193.193 93.1446C188.286 92.8309 179.424 92.5159 179.017 89.3803C179.017 89.3803 177.927 89.0667 175.882 89.3803C173.838 89.6951 170.975 90.0065 170.022 87.1858C169.067 84.3627 169.204 81.5385 168.794 79.9724C168.387 78.4027 165.522 71.8178 166.069 66.9558C166.613 62.0939 166.887 56.45 169.477 53.0005C172.067 49.5513 174.247 46.4157 175.201 43.4347C176.155 40.4559 177.653 37.0059 179.698 35.1228C181.743 33.2419 183.107 31.9877 184.197 29.6357C185.287 27.2832 185.968 27.9123 186.105 26.0278C186.241 24.148 184.47 20.2265 188.149 16.1511Z" fill="#F3AF01"/>
</svg>
